<?xml version="1.0" encoding="UTF-8"?>
<svg version="1.1" xmlns="http://www.w3.org/2000/svg" width="360" height="360">
<path d="M0 0 C1.28589272 -0.01467567 1.28589272 -0.01467567 2.59776306 -0.02964783 C5.43722992 -0.05958285 8.27664975 -0.08098214 11.11621094 -0.09985352 C12.5718256 -0.10971126 12.5718256 -0.10971126 14.05684662 -0.11976814 C19.19364464 -0.15235367 24.33042198 -0.17680636 29.46728516 -0.19628906 C33.71596476 -0.21410136 37.96398058 -0.24892165 42.21240234 -0.29882812 C47.34471529 -0.35904581 52.4764128 -0.38976689 57.60906219 -0.39946175 C59.56269237 -0.4080148 61.51630617 -0.42682925 63.46973419 -0.45620537 C66.20841415 -0.49517227 68.94470179 -0.49614819 71.68359375 -0.48828125 C72.48592941 -0.50828186 73.28826508 -0.52828247 74.11491394 -0.54888916 C79.53124997 -0.4792723 82.31291551 0.9568362 86.27205467 4.63666916 C92.10945255 11.54415007 89.66632711 25.63393565 89.22558594 34.02124023 C89.16886719 35.29805664 89.11214844 36.57487305 89.05371094 37.89038086 C88.91407767 40.99722115 88.76288034 44.10301561 88.60058594 47.20874023 C89.92058594 47.20874023 91.24058594 47.20874023 92.60058594 47.20874023 C92.60058594 42.58874023 92.60058594 37.96874023 92.60058594 33.20874023 C103.55163699 35.36576544 103.55163699 35.36576544 107.60058594 38.20874023 C109.37806211 41.81646546 110.336218 45.61197479 111.36230469 49.48999023 C111.83830864 51.17578186 111.83830864 51.17578186 112.32392883 52.89562988 C113.33439816 56.49418522 114.31153063 60.10085075 115.28808594 63.70874023 C115.95583579 66.10778335 116.62573444 68.50622949 117.29785156 70.90405273 C118.5379099 75.34388855 119.76674787 79.78642294 120.97827148 84.23413086 C121.25077728 85.22751465 121.52328308 86.22089844 121.80404663 87.24438477 C122.34247131 89.24815549 122.86138736 91.25725455 123.36221313 93.27075195 C123.60821259 94.24093262 123.85421204 95.21111328 124.10766602 96.21069336 C124.31805008 97.07021606 124.52843414 97.92973877 124.74519348 98.81530762 C126.02094955 102.38493949 128.28371809 104.84771014 130.69824219 107.71655273 C137.51350127 116.64496196 141.07873272 127.39898748 143.60058594 138.20874023 C143.93896484 139.56418945 143.93896484 139.56418945 144.28417969 140.94702148 C149.69839334 166.74854998 144.63195476 195.0054027 130.68652344 217.16186523 C128.60058594 220.20874023 128.60058594 220.20874023 127.06112671 221.63082886 C125.29887031 223.53470205 124.83285656 225.00938941 124.14599609 227.50219727 C123.90209137 228.3680545 123.65818665 229.23391174 123.40689087 230.12600708 C123.15370087 231.06338715 122.90051086 232.00076721 122.63964844 232.96655273 C122.36720306 233.94300751 122.09475769 234.91946228 121.8140564 235.92550659 C120.94182155 239.05906335 120.08333986 242.19619203 119.22558594 245.33374023 C118.65621866 247.39259562 118.08591571 249.45119248 117.51464844 251.50952148 C117.235224 252.51746765 116.95579956 253.52541382 116.66790771 254.56390381 C116.10915681 256.57601552 115.54914666 258.58777798 114.987854 260.59918213 C113.70842641 265.18747093 112.4468628 269.77739216 111.24804688 274.38745117 C110.8320385 275.92953317 110.41571874 277.47153121 109.99902344 279.01342773 C109.82795074 279.70719513 109.65687805 280.40096252 109.48062134 281.11575317 C108.56838549 284.41583726 107.8699371 286.0021644 105.11791992 288.11279297 C101.0294987 289.89272924 96.98736736 290.44836479 92.60058594 291.20874023 C92.60058594 286.58874023 92.60058594 281.96874023 92.60058594 277.20874023 C91.28058594 277.20874023 89.96058594 277.20874023 88.60058594 277.20874023 C88.6215332 278.32845215 88.64248047 279.44816406 88.6640625 280.60180664 C88.7366902 284.772574 88.78246804 288.94328592 88.8203125 293.11450195 C88.84037626 294.91668104 88.86763407 296.71879544 88.90234375 298.52075195 C88.95109422 301.1174316 88.97360676 303.71324752 88.99121094 306.31030273 C89.01185608 307.11053864 89.03250122 307.91077454 89.05377197 308.73526001 C89.05587279 314.02224867 88.19422558 317.07597795 84.60058594 321.20874023 C80.29837432 324.55324441 76.30098014 324.64250882 71.05004883 324.61279297 C69.77593895 324.62308784 69.77593895 324.62308784 68.47608948 324.6335907 C65.67496918 324.65185613 62.87440912 324.64802155 60.07324219 324.64233398 C58.12177854 324.64689595 56.17031651 324.65220157 54.21885681 324.65821838 C50.13094553 324.66714902 46.04322961 324.66472692 41.95532227 324.65478516 C36.72184005 324.6432964 31.48903265 324.66350586 26.25563908 324.69270229 C22.22610708 324.71106611 18.19673673 324.71077144 14.16717339 324.70506477 C12.23789969 324.70491158 10.30861502 324.71095455 8.37938118 324.72335625 C5.67933188 324.73826761 2.98052843 324.72758834 0.28051758 324.71044922 C-0.51292053 324.72011719 -1.30635864 324.72978516 -2.12384033 324.73974609 C-7.32953571 324.6707026 -10.2457123 323.60804741 -14.39941406 320.20874023 C-18.03590569 315.89993996 -17.79563457 311.77862842 -17.69238281 306.40795898 C-17.68813797 305.57158401 -17.68389313 304.73520905 -17.67951965 303.87348938 C-17.6627877 301.21407258 -17.62514632 298.55542623 -17.58691406 295.89624023 C-17.57186011 294.08830851 -17.55817294 292.28036484 -17.54589844 290.47241211 C-17.51290222 286.05089335 -17.46115834 281.62994722 -17.39941406 277.20874023 C-18.71941406 277.20874023 -20.03941406 277.20874023 -21.39941406 277.20874023 C-21.39941406 281.82874023 -21.39941406 286.44874023 -21.39941406 291.20874023 C-32.35808574 289.050214 -32.35808574 289.050214 -36.39941406 286.20874023 C-37.98902073 283.1055127 -38.74689954 279.83030922 -39.58691406 276.45874023 C-40.00457031 274.92914673 -40.00457031 274.92914673 -40.43066406 273.36865234 C-41.25037039 270.36211778 -42.04924739 267.35079494 -42.840271 264.33660889 C-44.590107 257.6774524 -46.37320981 251.02792392 -48.1913147 244.38708496 C-48.88799643 241.813419 -49.55853984 239.23386446 -50.22827148 236.65307617 C-52.33891389 228.76450637 -54.19585402 222.23497003 -59.77099609 216.02929688 C-62.29828303 213.20381282 -63.92496699 210.03121933 -65.58691406 206.64624023 C-65.92150635 205.97222168 -66.25609863 205.29820312 -66.60083008 204.60375977 C-77.98917893 180.61689387 -77.58742322 149.77848645 -68.77441406 125.02124023 C-65.55770772 116.56458405 -60.83949557 107.64882175 -54.39941406 101.20874023 C-53.74987137 99.2485052 -53.18499557 97.25990747 -52.6628418 95.26196289 C-52.33166855 94.01371735 -52.0004953 92.7654718 -51.6592865 91.47940063 C-51.39704946 90.47593534 -51.39704946 90.47593534 -51.12951469 89.45219803 C-50.19762892 85.90648077 -49.22747253 82.37115497 -48.26464844 78.83374023 C-47.04287249 74.33324884 -45.83228595 69.8305231 -44.65893555 65.31713867 C-43.70926808 61.66825863 -42.72398765 58.03066061 -41.71470833 54.39783859 C-41.33758764 53.01475311 -40.97361152 51.62801113 -40.62338066 50.23787308 C-37.89349343 39.44089371 -37.89349343 39.44089371 -34.30960083 36.48529053 C-30.05727015 34.48770965 -26.08047568 33.98891717 -21.39941406 33.20874023 C-21.39941406 37.82874023 -21.39941406 42.44874023 -21.39941406 47.20874023 C-20.07941406 47.20874023 -18.75941406 47.20874023 -17.39941406 47.20874023 C-17.44018066 46.28125977 -17.48094727 45.3537793 -17.52294922 44.39819336 C-17.67007375 40.92449201 -17.80672487 37.45069395 -17.93652344 33.97631836 C-17.99456846 32.47875677 -18.05666464 30.98134606 -18.12304688 29.48413086 C-18.21828195 27.3196974 -18.29845433 25.15512216 -18.37597656 22.98999023 C-18.42834473 21.69125977 -18.48071289 20.3925293 -18.53466797 19.05444336 C-18.27451202 11.65737379 -16.64962201 6.45894818 -11.39941406 1.20874023 C-7.5841053 -0.06302935 -3.97744662 0.02861739 0 0 Z M-21.39941406 53.20874023 C-21.40352295 54.12163818 -21.40763184 55.03453613 -21.41186523 55.97509766 C-21.43890808 59.37708802 -21.48805268 62.77729084 -21.55200195 66.17871094 C-21.57513399 67.6479997 -21.58956647 69.11745315 -21.5949707 70.58691406 C-21.60429685 72.70538368 -21.64535533 74.82128089 -21.69238281 76.93920898 C-21.71594849 78.84802856 -21.71594849 78.84802856 -21.73999023 80.79541016 C-22.56536784 85.06775531 -24.11396381 86.44971492 -27.39941406 89.20874023 C-27.92817139 89.70607666 -28.45692871 90.20341309 -29.00170898 90.71582031 C-29.45650635 91.1324292 -29.91130371 91.54903809 -30.37988281 91.97827148 C-48.27521328 108.78550368 -59.50264654 131.37808935 -60.78222656 156.06030273 C-61.60255852 183.88044946 -53.12469179 207.41774131 -35.03344727 228.67675781 C-33.32026007 230.37328086 -33.32026007 230.37328086 -30.69311523 231.96533203 C-26.02304236 235.13024665 -22.89640865 237.32692567 -21.41650391 242.93041992 C-20.96650919 247.21435938 -21.07669078 251.4730376 -21.21191406 255.77124023 C-21.21888472 257.27187636 -21.22087834 258.77254426 -21.21777344 260.27319336 C-21.22093633 263.92052688 -21.29144128 267.56282758 -21.39941406 271.20874023 C-20.07941406 270.87874023 -18.75941406 270.54874023 -17.39941406 270.20874023 C-17.06941406 263.60874023 -16.73941406 257.00874023 -16.39941406 250.20874023 C-14.17191406 251.28124023 -11.94441406 252.35374023 -9.64941406 253.45874023 C3.31180948 259.56602699 16.28413525 263.25582276 30.60058594 264.20874023 C31.68146484 264.28995117 31.68146484 264.28995117 32.78417969 264.37280273 C51.61302987 265.09071383 71.23069252 259.18577856 87.60058594 250.20874023 C87.93058594 257.13874023 88.26058594 264.06874023 88.60058594 271.20874023 C89.92058594 271.20874023 91.24058594 271.20874023 92.60058594 271.20874023 C92.57851074 270.28649658 92.55643555 269.36425293 92.53369141 268.4140625 C92.47499605 264.95125384 92.46192298 261.49421044 92.47851562 258.03125 C92.47658322 256.5405591 92.45710926 255.04977386 92.41894531 253.55957031 C92.12065974 241.20143333 92.12065974 241.20143333 95.77929688 236.27514648 C98.28384666 234.02041113 100.81635306 232.10047877 103.60058594 230.20874023 C119.39585044 216.68393481 128.50308139 195.07832734 131.35058594 174.83374023 C131.46591208 173.29413625 131.54361858 171.75160616 131.60058594 170.20874023 C131.65214844 168.97897461 131.70371094 167.74920898 131.75683594 166.48217773 C132.49574576 140.3363727 124.328168 116.01399307 106.22119141 96.74047852 C100.31748906 90.50315217 100.31748906 90.50315217 93.60058594 85.20874023 C93.26243846 82.73382909 93.11186255 80.49522335 93.08886719 78.01342773 C93.07091599 77.30598419 93.05296478 76.59854065 93.0344696 75.86965942 C92.98024151 73.60774721 92.94643278 71.3460474 92.91308594 69.08374023 C92.87992368 67.5511585 92.84543503 66.01860486 92.80957031 64.48608398 C92.72450867 60.72712244 92.65775841 56.96822523 92.60058594 53.20874023 C91.28058594 53.20874023 89.96058594 53.20874023 88.60058594 53.20874023 C88.60058594 60.46874023 88.60058594 67.72874023 88.60058594 75.20874023 C86.22871094 73.97124023 83.85683594 72.73374023 81.41308594 71.45874023 C58.94636278 60.06244328 30.74625802 56.68053799 6.51367188 64.54956055 C-1.90275007 67.44955279 -9.62950829 70.76879408 -17.39941406 75.20874023 C-17.39941406 67.94874023 -17.39941406 60.68874023 -17.39941406 53.20874023 C-18.71941406 53.20874023 -20.03941406 53.20874023 -21.39941406 53.20874023 Z " fill="#FBFDFD" transform="translate(144.3994140625,17.791259765625)"/>
<path d="M0 0 C0.86496094 0.4846875 1.72992188 0.969375 2.62109375 1.46875 C13.07085882 7.87644908 21.18090454 17.32436623 27 28 C27.54527344 28.98484375 28.09054688 29.9696875 28.65234375 30.984375 C37.2480183 47.88149564 38.73801865 68.94741188 33 87 C29.26028727 97.1006553 24.37584049 106.08824758 17 114 C16.33613281 114.75410156 15.67226562 115.50820312 14.98828125 116.28515625 C2.58225401 129.65431315 -15.3720787 138.44624457 -33.69140625 139.3359375 C-54.06075547 139.71545195 -72.49940651 134.9368168 -88 121 C-88.88300781 120.22140625 -89.76601562 119.4428125 -90.67578125 118.640625 C-104.09564701 106.09314332 -113.49021767 88.69934911 -114.3359375 70.08984375 C-114.71539022 48.5605671 -109.75703139 30.31040311 -95 14 C-94.33484375 13.24203125 -93.6696875 12.4840625 -92.984375 11.703125 C-68.3738209 -14.73043311 -30.29142765 -17.2648137 0 0 Z M-40 -7 C-40 -2.38 -40 2.24 -40 7 C-39.34 7 -38.68 7 -38 7 C-38 2.71 -38 -1.58 -38 -6 C-38.66 -6.33 -39.32 -6.66 -40 -7 Z M-75 3 C-73.02 6.96 -71.04 10.92 -69 15 C-68.34 15 -67.68 15 -67 15 C-68.31551124 10.39571066 -70.09196486 6.81679612 -73 3 C-73.66 3 -74.32 3 -75 3 Z M-5 3 C-6.59777524 5.17751179 -6.59777524 5.17751179 -8.125 7.875 C-8.66382813 8.77992187 -9.20265625 9.68484375 -9.7578125 10.6171875 C-11.1540893 12.84772022 -11.1540893 12.84772022 -11 15 C-10.34 15 -9.68 15 -9 15 C-7.02 11.04 -5.04 7.08 -3 3 C-3.66 3 -4.32 3 -5 3 Z M-80 23 C-80.29718216 26.61882131 -80.29718216 26.61882131 -78.78515625 29.81611633 C-78.21667969 30.37348984 -77.64820313 30.93086334 -77.0625 31.50512695 C-76.42183594 32.14541336 -75.78117187 32.78569977 -75.12109375 33.44538879 C-74.42113281 34.1195433 -73.72117187 34.79369781 -73 35.48828125 C-72.28972656 36.19147995 -71.57945312 36.89467865 -70.84765625 37.6191864 C-68.57656552 39.86229075 -66.28871108 42.08739089 -64 44.3125 C-62.45719701 45.83022597 -60.91551571 47.34909308 -59.375 48.86914062 C-55.59624894 52.59276588 -51.80358607 56.30175592 -48 60 C-46.35 58.35 -44.7 56.7 -43 55 C-47.44808871 50.42521049 -51.91560806 45.87008072 -56.3972168 41.328125 C-57.91967628 39.78051029 -59.4376195 38.22843927 -60.95092773 36.671875 C-63.12614678 34.43605496 -65.31706912 32.21672954 -67.51171875 30 C-68.18587326 29.30003906 -68.86002777 28.60007812 -69.55461121 27.87890625 C-70.19489761 27.23824219 -70.83518402 26.59757812 -71.49487305 25.9375 C-72.05224655 25.36902344 -72.60962006 24.80054688 -73.18388367 24.21484375 C-75.55277104 22.6302382 -77.20958633 22.77539749 -80 23 Z M-100 28 C-98.77974937 31.6607519 -97.873509 31.92339441 -94.5625 33.6875 C-93.75941406 34.12449219 -92.95632812 34.56148437 -92.12890625 35.01171875 C-90.08884169 36.14035414 -90.08884169 36.14035414 -88 36 C-88 35.34 -88 34.68 -88 34 C-91.96 32.02 -95.92 30.04 -100 28 Z M21 28 C19.35048774 28.95198711 17.70548492 29.91179145 16.0625 30.875 C15.14597656 31.40867188 14.22945312 31.94234375 13.28515625 32.4921875 C10.89299704 33.79712563 10.89299704 33.79712563 10 36 C14.61513112 34.68139111 18.09897612 32.78644563 22 30 C21.67 29.34 21.34 28.68 21 28 Z M-42 59 C-44.31563087 60.88500271 -44.31563087 60.88500271 -44.25 64 C-44.31563087 67.11499729 -44.31563087 67.11499729 -42 69 C-39 69.41666667 -39 69.41666667 -36 69 C-33.63307034 66.15173402 -33.63307034 66.15173402 -34.375 62.8125 C-34.58125 61.884375 -34.7875 60.95625 -35 60 C-38.40320934 59.32326553 -38.40320934 59.32326553 -42 59 Z M-109 63 C-109.33 63.66 -109.66 64.32 -110 65 C-105.38 65 -100.76 65 -96 65 C-96 64.34 -96 63.68 -96 63 C-100.29 63 -104.58 63 -109 63 Z M18 63 C18 63.66 18 64.32 18 65 C22.29 65 26.58 65 31 65 C31 64.34 31 63.68 31 63 C26.71 63 22.42 63 18 63 Z M-46 71 C-47.4582063 75.03303646 -48.90010837 79.07142636 -50.32739258 83.11547852 C-50.814846 84.48944638 -51.30666557 85.86187355 -51.80297852 87.23266602 C-52.51701027 89.2071751 -53.21498289 91.18675367 -53.91015625 93.16796875 C-54.33433838 94.35672607 -54.75852051 95.5454834 -55.19555664 96.77026367 C-56.01804832 100.07246167 -56.09653571 101.8103034 -55 105 C-54.34 105.66 -53.68 106.32 -53 107 C-48.69315447 104.04332881 -47.1257287 101.72415071 -45.54296875 96.7734375 C-45.15302734 95.5771875 -44.76308594 94.3809375 -44.36132812 93.1484375 C-43.7802832 91.28058594 -43.7802832 91.28058594 -43.1875 89.375 C-42.78080078 88.12203125 -42.37410156 86.8690625 -41.95507812 85.578125 C-39.87476369 79.90003861 -39.87476369 79.90003861 -39 74 C-41.31 73.01 -43.62 72.02 -46 71 Z M-95.125 94.875 C-96.03507812 95.40867187 -96.94515625 95.94234375 -97.8828125 96.4921875 C-98.58148438 96.98976563 -99.28015625 97.48734375 -100 98 C-100 98.66 -100 99.32 -100 100 C-95.69235185 98.43358249 -91.93828536 96.31663844 -88 94 C-88 93.34 -88 92.68 -88 92 C-90.92231804 92 -92.63222913 93.39070053 -95.125 94.875 Z M10 92 C10 92.66 10 93.32 10 94 C12.17751179 95.59777524 12.17751179 95.59777524 14.875 97.125 C16.23238281 97.93324219 16.23238281 97.93324219 17.6171875 98.7578125 C19.84772022 100.1540893 19.84772022 100.1540893 22 100 C20.77974937 96.3392481 19.873509 96.07660559 16.5625 94.3125 C15.35787109 93.65701172 15.35787109 93.65701172 14.12890625 92.98828125 C12.08884169 91.85964586 12.08884169 91.85964586 10 92 Z M-69 113 C-70.98 116.96 -72.96 120.92 -75 125 C-71.3392481 123.77974937 -71.07660559 122.873509 -69.3125 119.5625 C-68.87550781 118.75941406 -68.43851563 117.95632812 -67.98828125 117.12890625 C-66.85964586 115.08884169 -66.85964586 115.08884169 -67 113 C-67.66 113 -68.32 113 -69 113 Z M-11 113 C-9.68139111 117.61513112 -7.78644563 121.09897612 -5 125 C-4.34 124.67 -3.68 124.34 -3 124 C-4.98 120.37 -6.96 116.74 -9 113 C-9.66 113 -10.32 113 -11 113 Z M-40 121 C-40 125.29 -40 129.58 -40 134 C-39.34 134 -38.68 134 -38 134 C-38 129.71 -38 125.42 -38 121 C-38.66 121 -39.32 121 -40 121 Z " fill="#FAFCFC" transform="translate(219,116)"/>
<path d="M0 0 C0 7.59 0 15.18 0 23 C1.485 23.495 1.485 23.495 3 24 C2.34 24 1.68 24 1 24 C1 24.66 1 25.32 1 26 C2.98 26.495 2.98 26.495 5 27 C3.35 27 1.7 27 0 27 C0.0314209 28.72500732 0.0314209 28.72500732 0.06347656 30.48486328 C0.13609063 34.76745056 0.18187729 39.04998383 0.21972656 43.33300781 C0.23979339 45.18368696 0.26705345 47.03430309 0.30175781 48.88476562 C0.35049433 51.55093977 0.37301787 54.21627287 0.390625 56.8828125 C0.41127014 57.70492218 0.43191528 58.52703186 0.45318604 59.37405396 C0.45525574 64.71990466 -0.35160926 67.82607282 -4 72 C-8.30319149 75.34352208 -12.29919465 75.43377092 -17.55053711 75.40405273 C-18.82464699 75.41434761 -18.82464699 75.41434761 -20.12449646 75.42485046 C-22.92561675 75.44311589 -25.72617681 75.43928132 -28.52734375 75.43359375 C-30.47880739 75.43815572 -32.43026943 75.44346134 -34.38172913 75.44947815 C-38.46964041 75.45840878 -42.55735633 75.45598669 -46.64526367 75.44604492 C-51.87874589 75.43455617 -57.11155329 75.45476563 -62.34494686 75.48396206 C-66.37447886 75.50232588 -70.4038492 75.50203121 -74.43341255 75.49632454 C-76.36268625 75.49617134 -78.29197092 75.50221431 -80.22120476 75.51461601 C-82.92125406 75.52952738 -85.62005751 75.51884811 -88.32006836 75.50170898 C-89.11350647 75.51137695 -89.90694458 75.52104492 -90.72442627 75.53100586 C-95.93036246 75.46195917 -98.84554973 74.39854033 -103 71 C-106.68899173 66.65615766 -106.39450091 62.40512589 -106.29296875 56.98046875 C-106.28872391 56.12189774 -106.28447906 55.26332672 -106.28010559 54.3787384 C-106.26336995 51.64800086 -106.22572766 48.91801288 -106.1875 46.1875 C-106.17244653 44.3313909 -106.15875928 42.47527018 -106.14648438 40.61914062 C-106.11348323 36.07914015 -106.06173659 31.53969698 -106 27 C-106.99 26.67 -107.98 26.34 -109 26 C-109 25.34 -109 24.68 -109 24 C-107.68 23.67 -106.36 23.34 -105 23 C-105.01160156 21.87980469 -105.02320312 20.75960938 -105.03515625 19.60546875 C-105.04453622 18.13281417 -105.0536362 16.66015778 -105.0625 15.1875 C-105.07087891 14.44951172 -105.07925781 13.71152344 -105.08789062 12.95117188 C-105.10259828 9.70077932 -105.03531702 7.10595105 -104 4 C-99.36305763 2.53163492 -97.03428052 3.5910452 -92.75 5.6875 C-81.91580219 10.69766013 -69.93272228 13.49580047 -58 14 C-57.2884375 14.0515625 -56.576875 14.103125 -55.84375 14.15625 C-37.78537948 14.89837482 -18.42726363 9.45789715 -2.65234375 0.8828125 C-1 0 -1 0 0 0 Z " fill="#FBFDFD" transform="translate(233,267)"/>
<path d="M0 0 C1.72396644 1.48200624 3.43357993 2.98095395 5.125 4.5 C5.83140625 5.12390625 6.5378125 5.7478125 7.265625 6.390625 C19.92416928 18.25178066 28.5650902 34.93309153 33.125 51.5 C33.46337891 52.69689453 33.46337891 52.69689453 33.80859375 53.91796875 C39.32484893 77.84710329 33.53384863 102.89003668 21.0703125 123.5546875 C17.78454457 128.52952489 14.08079877 133.04636261 10.125 137.5 C9.44953125 138.27085937 8.7740625 139.04171875 8.078125 139.8359375 C-7.42231317 156.44354983 -30.71588086 166.76693609 -53.29296875 167.72265625 C-80.68794692 168.44667841 -104.3211828 159.6145584 -124.54296875 141.05078125 C-142.97336369 123.28956857 -152.61143502 99.22209076 -153.1875 73.75 C-153.05590619 47.16484151 -142.25211191 24.27758503 -124 5.3125 C-90.31135744 -27.4559672 -36.45336148 -29.16268919 0 0 Z M-115.875 11.5 C-116.48988281 12.03109375 -117.10476562 12.5621875 -117.73828125 13.109375 C-132.87672372 27.16898593 -141.70590927 48.55776716 -143.11328125 68.953125 C-143.40467553 83.86024308 -140.57923707 98.09152586 -133.875 111.5 C-133.38386719 112.48226562 -132.89273438 113.46453125 -132.38671875 114.4765625 C-122.17090675 133.34777608 -104.52648987 147.29043493 -84.1875 153.875 C-59.81535406 160.5922012 -36.56255363 157.7012877 -14.5703125 145.23046875 C-9.6491654 142.07094967 -5.25016478 138.36770052 -0.875 134.5 C-0.23820313 133.95859375 0.39859375 133.4171875 1.0546875 132.859375 C14.5112355 120.58105009 23.68538424 99.59667006 25.03515625 81.6875 C25.06480469 80.965625 25.09445312 80.24375 25.125 79.5 C25.16496094 78.675 25.20492187 77.85 25.24609375 77 C25.81470274 53.98805958 17.76639887 32.37162126 2.125 15.5 C-14.09619337 -1.34797828 -35.63794273 -9.97777151 -58.875 -10.75 C-80.15161662 -10.48180735 -99.92157723 -2.44894797 -115.875 11.5 Z " fill="#E9F1F7" transform="translate(238.875,106.5)"/>
<path d="M0 0 C1.02245821 3.31868591 1.04443871 6.18283589 0.87890625 9.640625 C0.83056641 10.71054687 0.78222656 11.78046875 0.73242188 12.8828125 C0.67634766 13.99398437 0.62027344 15.10515625 0.5625 16.25 C0.51029297 17.37664063 0.45808594 18.50328125 0.40429688 19.6640625 C0.27477014 22.44299972 0.13980947 25.22156424 0 28 C1.32 28 2.64 28 4 28 C4 23.38 4 18.76 4 14 C14.95105105 16.15702521 14.95105105 16.15702521 19 19 C20.77747618 22.60772523 21.73563206 26.40323456 22.76171875 30.28125 C23.07905472 31.40511108 23.39639069 32.52897217 23.7233429 33.68688965 C24.73381222 37.28544499 25.71094469 40.89211052 26.6875 44.5 C27.35524986 46.89904312 28.0251485 49.29748925 28.69726562 51.6953125 C29.93732397 56.13514832 31.16616193 60.5776827 32.37768555 65.02539062 C32.65019135 66.01877441 32.92269714 67.0121582 33.20346069 68.03564453 C33.74188537 70.03941526 34.26080142 72.04851431 34.7616272 74.06201172 C35.00762665 75.03219238 35.2536261 76.00237305 35.50708008 77.00195312 C35.71746414 77.86147583 35.92784821 78.72099854 36.14460754 79.60656738 C37.42036361 83.17619926 39.68313215 85.63896991 42.09765625 88.5078125 C48.91291533 97.43622173 52.47814678 108.19024725 55 119 C55.22558594 119.90363281 55.45117188 120.80726563 55.68359375 121.73828125 C61.0978074 147.53980975 56.03136882 175.79666247 42.0859375 197.953125 C40 201 40 201 38.46054077 202.42208862 C36.69828437 204.32596181 36.23227062 205.80064918 35.54541016 208.29345703 C35.30150543 209.15931427 35.05760071 210.02517151 34.80630493 210.91726685 C34.55311493 211.85464691 34.29992493 212.79202698 34.0390625 213.7578125 C33.76661713 214.73426727 33.49417175 215.71072205 33.21347046 216.71676636 C32.34123561 219.85032312 31.48275393 222.98745179 30.625 226.125 C30.05563273 228.18385538 29.48532978 230.24245225 28.9140625 232.30078125 C28.63463806 233.30872742 28.35521362 234.31667358 28.06732178 235.35516357 C27.50857087 237.36727528 26.94856073 239.37903775 26.38726807 241.39044189 C25.10784047 245.9787307 23.84627686 250.56865193 22.64746094 255.17871094 C22.23145256 256.72079293 21.8151328 258.26279098 21.3984375 259.8046875 C21.22736481 260.4984549 21.05629211 261.19222229 20.8800354 261.90701294 C19.96779956 265.20709703 19.26935116 266.79342416 16.51733398 268.90405273 C12.42891276 270.683989 8.38678142 271.23962455 4 272 C4 267.38 4 262.76 4 258 C2.68 257.67 1.36 257.34 0 257 C0 255.68 0 254.36 0 253 C1.32 252.67 2.64 252.34 4 252 C3.9371582 251.08822998 3.87431641 250.17645996 3.80957031 249.23706055 C2.14036168 221.46797892 2.14036168 221.46797892 6.390625 215.7421875 C9.22765117 212.95702145 12.58322313 211.00962092 16 209 C29.24707386 196.80537069 38.30484203 177.67603601 41 160 C41.10957031 159.35933594 41.21914063 158.71867188 41.33203125 158.05859375 C44.94880891 132.64470273 39.09059536 107.25577808 24.12890625 86.390625 C16.12886254 75.8756541 16.12886254 75.8756541 5.89453125 67.83642578 C3.52595641 65.54049537 3.49049937 63.84923972 3.39434814 60.6287384 C3.39311951 59.92238754 3.39189087 59.21603668 3.390625 58.48828125 C3.36582062 57.39594429 3.36582062 57.39594429 3.34051514 56.28153992 C3.29197803 53.95844135 3.27065331 51.6359975 3.25 49.3125 C3.22184482 47.73629508 3.19191801 46.16012074 3.16015625 44.58398438 C3.08621856 40.72271017 3.03667968 36.86180061 3 33 C1.68 32.34 0.36 31.68 -1 31 C-1.02473868 27.06731133 -1.04287835 23.13465287 -1.05493164 19.2019043 C-1.06242729 17.20685232 -1.07513345 15.21182214 -1.08789062 13.21679688 C-1.09111328 11.96318359 -1.09433594 10.70957031 -1.09765625 9.41796875 C-1.10289307 8.26063232 -1.10812988 7.1032959 -1.11352539 5.91088867 C-1 3 -1 3 0 0 Z " fill="#F1F6F9" transform="translate(233,37)"/>
<path d="M0 0 C0.495 7.92 0.495 7.92 1 16 C2.65 16.33 4.3 16.66 6 17 C4.68 17.33 3.36 17.66 2 18 C2.02618408 18.91289795 2.05236816 19.8257959 2.0793457 20.76635742 C2.16478542 24.16772344 2.22734999 27.56794258 2.2746582 30.9699707 C2.29973644 32.43955525 2.33380856 33.90901587 2.37719727 35.37817383 C2.43815499 37.49591681 2.46627316 39.61200576 2.48828125 41.73046875 C2.51446533 43.00301514 2.54064941 44.27556152 2.56762695 45.58666992 C1.84882596 49.9090599 0.31146923 51.23344067 -3 54 C-3.52875732 54.49733643 -4.05751465 54.99467285 -4.60229492 55.50708008 C-5.28449097 56.13199341 -5.28449097 56.13199341 -5.98046875 56.76953125 C-23.87579921 73.57676345 -35.10323248 96.16934912 -36.3828125 120.8515625 C-37.06947903 144.13867615 -31.6498933 164.93160242 -18 184 C-17.39542969 184.85078125 -16.79085937 185.7015625 -16.16796875 186.578125 C-11.24175213 193.11965908 -5.46040729 198.01560844 1 203 C2 204 2 204 2.11352539 207.05102539 C2.11336634 208.39991271 2.10767612 209.74880614 2.09765625 211.09765625 C2.0962413 211.80651474 2.09482635 212.51537323 2.09336853 213.24571228 C2.08775443 215.51801712 2.07519963 217.79022475 2.0625 220.0625 C2.05748681 221.59960796 2.05292359 223.13671745 2.04882812 224.67382812 C2.03778042 228.44925642 2.02050641 232.22461171 2 236 C2.99 235.67 3.98 235.34 5 235 C5.33 228.07 5.66 221.14 6 214 C7.65 214.66 9.3 215.32 11 216 C10.67 216.66 10.34 217.32 10 218 C9.34 218 8.68 218 8 218 C7.98541748 218.55985596 7.97083496 219.11971191 7.95581055 219.6965332 C7.88128648 222.23588137 7.78464419 224.77392078 7.6875 227.3125 C7.66494141 228.19357422 7.64238281 229.07464844 7.61914062 229.98242188 C7.58369141 230.82998047 7.54824219 231.67753906 7.51171875 232.55078125 C7.48553467 233.33106689 7.45935059 234.11135254 7.43237305 234.9152832 C6.9068329 237.44921166 5.9591474 238.36927777 4 240 C4.99 240.99 4.99 240.99 6 242 C4.68 242 3.36 242 2 242 C2 246.62 2 251.24 2 256 C-8.95867168 253.84147376 -8.95867168 253.84147376 -13 251 C-14.58960667 247.89677247 -15.34748548 244.62156899 -16.1875 241.25 C-16.60515625 239.72040649 -16.60515625 239.72040649 -17.03125 238.15991211 C-17.85095633 235.15337755 -18.64983333 232.14205471 -19.44085693 229.12786865 C-21.19069294 222.46871216 -22.97379575 215.81918368 -24.79190063 209.17834473 C-25.48858237 206.60467876 -26.15912578 204.02512423 -26.82885742 201.44433594 C-28.93949983 193.55576614 -30.79643996 187.02622979 -36.37158203 180.82055664 C-38.89886896 177.99507258 -40.52555293 174.8224791 -42.1875 171.4375 C-42.52209229 170.76348145 -42.85668457 170.08946289 -43.20141602 169.39501953 C-54.58976487 145.40815363 -54.18800915 114.56974621 -45.375 89.8125 C-42.15829366 81.35584382 -37.44008151 72.44008151 -31 66 C-30.35045731 64.03976496 -29.78558151 62.05116724 -29.26342773 60.05322266 C-28.93225449 58.80497711 -28.60108124 57.55673157 -28.25987244 56.2706604 C-27.99763539 55.26719511 -27.99763539 55.26719511 -27.73010063 54.24345779 C-26.79821486 50.69774053 -25.82805847 47.16241474 -24.86523438 43.625 C-23.64345843 39.12450861 -22.43287189 34.62178286 -21.25952148 30.10839844 C-20.30985401 26.45951839 -19.32457359 22.82192037 -18.31529427 19.18909836 C-17.93817357 17.80601288 -17.57419746 16.4192709 -17.2239666 15.02913284 C-14.49680786 4.24294495 -14.49680786 4.24294495 -10.83987427 1.20623779 C-6.58414297 -0.84465017 -4.68837784 -1.17209446 0 0 Z " fill="#EFF5F8" transform="translate(121,53)"/>
<path d="M0 0 C1.14662109 -0.00580078 1.14662109 -0.00580078 2.31640625 -0.01171875 C7.33654831 -0.00319559 12.15552929 0.41184133 17.125 1.125 C17.125 1.455 17.125 1.785 17.125 2.125 C7.225 2.125 -2.675 2.125 -12.875 2.125 C-12.875 3.445 -12.875 4.765 -12.875 6.125 C-12.215 6.785 -11.555 7.445 -10.875 8.125 C-11.205 8.455 -11.535 8.785 -11.875 9.125 C-9.565 9.455 -7.255 9.785 -4.875 10.125 C-4.875 10.455 -4.875 10.785 -4.875 11.125 C-6.48955078 11.36283203 -6.48955078 11.36283203 -8.13671875 11.60546875 C-24.08586819 14.09488626 -37.08441782 19.80139861 -50.875 28.125 C-51.019375 27.526875 -51.16375 26.92875 -51.3125 26.3125 C-52.37235611 21.95269778 -52.37235611 21.95269778 -55.875 19.125 C-39.75253387 6.64431445 -20.42652373 -0.10230312 0 0 Z " fill="#DBE8F2" transform="translate(178.875,85.875)"/>
<path d="M0 0 C0.33 0.99 0.66 1.98 1 3 C1.99 3.66 2.98 4.32 4 5 C3.01 5 2.02 5 1 5 C1 6.32 1 7.64 1 9 C-0.5390625 10.67578125 -0.5390625 10.67578125 -2.625 12.3125 C-6.5901982 15.57214692 -9.75675861 19.0270293 -13 23 C-14.32 22.67 -15.64 22.34 -17 22 C-17.33 23.98 -17.66 25.96 -18 28 C-18.66 28 -19.32 28 -20 28 C-20.66 28.66 -21.32 29.32 -22 30 C-22 29.34 -22 28.68 -22 28 C-22.99 27.67 -23.98 27.34 -25 27 C-24.505 25.515 -24.505 25.515 -24 24 C-23.34 24 -22.68 24 -22 24 C-22.185625 23.05125 -22.37125 22.1025 -22.5625 21.125 C-22.57304886 15.91386277 -18.95312788 12.98010319 -15.515625 9.4453125 C-14.68546875 8.63835937 -13.8553125 7.83140625 -13 7 C-12.27296875 6.27554688 -11.5459375 5.55109375 -10.796875 4.8046875 C-5.25806119 -0.41701865 -5.25806119 -0.41701865 0 0 Z " fill="#EFF6F8" transform="translate(127,106)"/>
<path d="M0 0 C1.4540625 0.0309375 1.4540625 0.0309375 2.9375 0.0625 C3.2675 1.0525 3.5975 2.0425 3.9375 3.0625 C4.535625 3.145 5.13375 3.2275 5.75 3.3125 C8.91365265 4.39718091 9.79936578 6.38334775 11.296875 9.27734375 C11.9375 11.0625 11.9375 11.0625 11.5625 13.4375 C9.27308775 15.72691225 7.07357454 15.63139541 3.9375 16.0625 C2.58936813 14.51275019 1.2594657 12.94712935 -0.0625 11.375 C-0.805 10.50488281 -1.5475 9.63476562 -2.3125 8.73828125 C-4.2210212 5.82011825 -4.54008724 4.47127891 -4.0625 1.0625 C-3.0625 0.0625 -3.0625 0.0625 0 0 Z " fill="#EFF6F8" transform="translate(106.0625,226.9375)"/>
<path d="M0 0 C2.39450437 3.03256093 4.28609748 6.16653681 6.125 9.5625 C6.64320312 10.51253906 7.16140625 11.46257812 7.6953125 12.44140625 C9 15 9 15 10 18 C9.34 18 8.68 18 8 18 C7.34 17.34 6.68 16.68 6 16 C3.41645782 15.83312552 3.41645782 15.83312552 1 16 C0.34 17.32 -0.32 18.64 -1 20 C-2.00508801 18.21118264 -3.00392736 16.41885304 -4 14.625 C-4.8353125 13.12839844 -4.8353125 13.12839844 -5.6875 11.6015625 C-7 9 -7 9 -7 7 C-5.02 7.99 -5.02 7.99 -3 9 C-2.01 6.03 -1.02 3.06 0 0 Z " fill="#DBE8F2" transform="translate(102,212)"/>
<path d="M0 0 C0.86850586 -0.00014603 1.73701172 -0.00029205 2.63183594 -0.0004425 C5.50498952 0.00025464 8.37807843 0.00803778 11.2512207 0.01586914 C13.24233464 0.01773402 15.23344904 0.0191576 17.2245636 0.02015686 C22.46722682 0.02397649 27.70986237 0.03380207 32.95251465 0.04486084 C38.30142848 0.05508685 43.65034679 0.05965704 48.99926758 0.06469727 C59.49602453 0.07542481 69.99276094 0.09249462 80.48950195 0.11352539 C80.48950195 0.44352539 80.48950195 0.77352539 80.48950195 1.11352539 C79.42763168 1.12383286 78.36576141 1.13414032 77.27171326 1.14476013 C67.252144 1.24262448 57.23263504 1.34537052 47.21316433 1.45286465 C42.06237802 1.50796893 36.91158592 1.56136852 31.76074219 1.61083984 C26.78754475 1.65866822 21.81441335 1.7110169 16.84129524 1.76646614 C14.94636752 1.78680624 13.05142175 1.80553267 11.15646172 1.82259941 C8.49714534 1.84682909 5.83795167 1.87685698 3.17871094 1.90820312 C2.01021606 1.91683632 2.01021606 1.91683632 0.81811523 1.92564392 C-3.71543947 1.98616728 -8.03549193 2.37624686 -12.51049805 3.11352539 C-10.28074706 -1.34597658 -4.35047782 -0.01904139 0 0 Z " fill="#E3F5F9" transform="translate(144.510498046875,17.886474609375)"/>
<path d="M0 0 C0.99 0 1.98 0 3 0 C3 0.66 3 1.32 3 2 C5.64 2 8.28 2 11 2 C11 2.66 11 3.32 11 4 C11.66 4 12.32 4 13 4 C12.67 4.66 12.34 5.32 12 6 C11.34 6 10.68 6 10 6 C10 5.34 10 4.68 10 4 C7.66705225 3.95758277 5.33297433 3.95907063 3 4 C1.65595225 5.11836224 1.65595225 5.11836224 1.875 8 C1.65595225 10.88163776 1.65595225 10.88163776 3 12 C4.99958364 12.04080783 7.00045254 12.04254356 9 12 C9.66 10.35 10.32 8.7 11 7 C11.66 7.66 12.32 8.32 13 9 C12.875 11 12.875 11 12 13 C10.0625 14.3125 10.0625 14.3125 8 15 C7.34 14.67 6.68 14.34 6 14 C6 15.32 6 16.64 6 18 C3.0625 17.1875 3.0625 17.1875 0 16 C-1.03159626 12.90521121 -0.97482862 11.47368607 -0.5625 8.3125 C-0.46066406 7.50425781 -0.35882813 6.69601563 -0.25390625 5.86328125 C-0.17011719 5.24839844 -0.08632812 4.63351563 0 4 C-0.66 4 -1.32 4 -2 4 C-1.34 2.68 -0.68 1.36 0 0 Z " fill="#B6D1E5" transform="translate(174,172)"/>
<path d="M0 0 C15.67005076 1.67005076 15.67005076 1.67005076 17 3 C19.6662603 3.08855161 22.30647114 3.11524673 24.97265625 3.09765625 C26.16912025 3.09553383 26.16912025 3.09553383 27.38975525 3.09336853 C29.94737435 3.08775316 32.50490718 3.07519812 35.0625 3.0625 C36.79231645 3.05748698 38.52213426 3.05292373 40.25195312 3.04882812 C44.50133553 3.03777875 48.75065312 3.02050386 53 3 C53 3.33 53 3.66 53 4 C35.41230559 7.93177999 17.00810006 6.99060186 0 1 C0 0.67 0 0.34 0 0 Z " fill="#9EBEDE" transform="translate(149,268)"/>
<path d="M0 0 C0.474375 0.495 0.94875 0.99 1.4375 1.5 C2.75923698 3.11542197 2.75923698 3.11542197 4 3 C4.99 3 5.98 3 7 3 C7.33 3.66 7.66 4.32 8 5 C9.98 5 11.96 5 14 5 C10.71533863 8.67882073 7.33639092 10.75150101 3 13 C2.34 13 1.68 13 1 13 C0.87625 12.030625 0.7525 11.06125 0.625 10.0625 C0.41875 9.051875 0.2125 8.04125 0 7 C-0.66 6.67 -1.32 6.34 -2 6 C-1.01 6 -0.02 6 1 6 C0.67 4.02 0.34 2.04 0 0 Z " fill="#D7E4EE" transform="translate(210,235)"/>
<path d="M0 0 C0 3.53922552 -0.70481438 4.31891897 -2.8125 7.0625 C-3.33457031 7.75472656 -3.85664063 8.44695312 -4.39453125 9.16015625 C-6 11 -6 11 -9 13 C-9.99 13 -10.98 13 -12 13 C-12.33 23.56 -12.66 34.12 -13 45 C-13.33 45 -13.66 45 -14 45 C-16.08534821 14.7437363 -16.08534821 14.7437363 -11.3984375 8.49609375 C-8.62062444 5.73573782 -5.4667514 3.81500281 -2 2 C-1.34 1.34 -0.68 0.68 0 0 Z " fill="#82A6D7" transform="translate(251,244)"/>
<path d="M0 0 C0.33 0 0.66 0 1 0 C0.67 13.53 0.34 27.06 0 41 C-1.98 41 -3.96 41 -6 41 C-6 36.38 -6 31.76 -6 27 C-6.66 26.67 -7.32 26.34 -8 26 C-7.01 26 -6.02 26 -5 26 C-5 30.62 -5 35.24 -5 40 C-3.68 40 -2.36 40 -1 40 C-1.0407666 39.07251953 -1.0815332 38.14503906 -1.12353516 37.18945312 C-1.27065969 33.71575178 -1.40731081 30.24195371 -1.53710938 26.76757812 C-1.5951544 25.27001653 -1.65725058 23.77260582 -1.72363281 22.27539062 C-1.81886788 20.11095716 -1.89904027 17.94638193 -1.9765625 15.78125 C-2.02893066 14.48251953 -2.08129883 13.18378906 -2.13525391 11.84570312 C-1.98474906 7.5663668 -1.17008957 4.10529721 0 0 Z " fill="#99BDE2" transform="translate(128,25)"/>
<path d="M0 0 C-2.56151683 0.81571218 -5.12412628 1.62766131 -7.6875 2.4375 C-8.7693457 2.78264648 -8.7693457 2.78264648 -9.87304688 3.13476562 C-10.93168945 3.46831055 -10.93168945 3.46831055 -12.01171875 3.80859375 C-12.65584717 4.01282959 -13.29997559 4.21706543 -13.96362305 4.42749023 C-17.97349139 5.55483003 -21.69714569 6.12453454 -25.86328125 6.09765625 C-27.19262695 6.09282227 -27.19262695 6.09282227 -28.54882812 6.08789062 C-29.46083984 6.07951172 -30.37285156 6.07113281 -31.3125 6.0625 C-32.24384766 6.05798828 -33.17519531 6.05347656 -34.13476562 6.04882812 C-36.42324373 6.03709234 -38.71158808 6.02067363 -41 6 C-41 5.67 -41 5.34 -41 5 C-40.05362671 4.91697632 -40.05362671 4.91697632 -39.08813477 4.83227539 C-36.2458232 4.5803188 -33.40417781 4.32150231 -30.5625 4.0625 C-29.07266602 3.93198242 -29.07266602 3.93198242 -27.55273438 3.79882812 C-26.60849609 3.71181641 -25.66425781 3.62480469 -24.69140625 3.53515625 C-23.81685791 3.456604 -22.94230957 3.37805176 -22.04125977 3.29711914 C-20.00985544 3.20914952 -20.00985544 3.20914952 -19 2 C-17.42558539 1.62680543 -15.83979215 1.30102573 -14.25 1 C-13.38890625 0.835 -12.5278125 0.67 -11.640625 0.5 C-10.76921875 0.335 -9.8978125 0.17 -9 0 C-8.14921875 -0.20625 -7.2984375 -0.4125 -6.421875 -0.625 C-3.91561715 -1.01306573 -2.3831805 -0.7943935 0 0 Z " fill="#ADC9EB" transform="translate(211,249)"/>
<path d="M0 0 C0.66 0.99 1.32 1.98 2 3 C1.01 3.33 0.02 3.66 -1 4 C-1.33 5.98 -1.66 7.96 -2 10 C-2.66 10 -3.32 10 -4 10 C-4 10.99 -4 11.98 -4 13 C-3.01 13 -2.02 13 -1 13 C-1 13.66 -1 14.32 -1 15 C-6.26170694 13.58832253 -9.72171358 11.25149768 -14 8 C-13.34 7.67 -12.68 7.34 -12 7 C-9.875 7.9375 -9.875 7.9375 -8 9 C-7.01 6.36 -6.02 3.72 -5 1 C-4.34 1 -3.68 1 -3 1 C-3.66 2.98 -4.32 4.96 -5 7 C-2.22999175 3.67913229 -2.22999175 3.67913229 0 0 Z " fill="#CCE0EF" transform="translate(150,233)"/>
<path d="M0 0 C0 0.33 0 0.66 0 1 C-0.76143311 0.99476318 -1.52286621 0.98952637 -2.30737305 0.98413086 C-5.76740692 0.96330475 -9.22742759 0.95032187 -12.6875 0.9375 C-13.88568359 0.92912109 -15.08386719 0.92074219 -16.31835938 0.91210938 C-17.47529297 0.90888672 -18.63222656 0.90566406 -19.82421875 0.90234375 C-21.41882935 0.89448853 -21.41882935 0.89448853 -23.0456543 0.88647461 C-25.81721216 0.99297609 -28.29011643 1.45528689 -31 2 C-34.3125 1.5625 -34.3125 1.5625 -37 1 C-27.19600141 -4.88239915 -10.61662508 -2.85832214 0 0 Z " fill="#9CBBDB" transform="translate(198,107)"/>
<path d="M0 0 C-0.66 2.97 -1.32 5.94 -2 9 C-4.64 8.67 -7.28 8.34 -10 8 C-10 7.34 -10 6.68 -10 6 C-10.66 5.67 -11.32 5.34 -12 5 C-10 4 -8 3 -6 2 C-5.2575 1.608125 -4.515 1.21625 -3.75 0.8125 C-2 0 -2 0 0 0 Z M-14 6 C-12 7 -12 7 -12 7 Z " fill="#FAFDFB" transform="translate(232,250)"/>
<path d="M0 0 C6.75 1.75 6.75 1.75 9 4 C9.33 3.01 9.66 2.02 10 1 C10.99 1.33 11.98 1.66 13 2 C12.04855402 3.81612488 11.08863067 5.62781081 10.125 7.4375 C9.59132812 8.44683594 9.05765625 9.45617187 8.5078125 10.49609375 C7 13 7 13 5 14 C5.33 12.35 5.66 10.7 6 9 C5.01 9.33 4.02 9.66 3 10 C3.66 8.02 4.32 6.04 5 4 C4.175 3.525625 3.35 3.05125 2.5 2.5625 C1.675 2.046875 0.85 1.53125 0 1 C0 0.67 0 0.34 0 0 Z " fill="#CBDEEF" transform="translate(235,210)"/>
<path d="M0 0 C1.9375 0.375 1.9375 0.375 4 1 C5.60031344 4.20062687 4.03173691 6.72271806 3 10 C2.34 10 1.68 10 1 10 C0.34 10.66 -0.32 11.32 -1 12 C-1 11.34 -1 10.68 -1 10 C-1.99 9.67 -2.98 9.34 -4 9 C-3.67 8.01 -3.34 7.02 -3 6 C-2.34 6 -1.68 6 -1 6 C-0.67 4.02 -0.34 2.04 0 0 Z " fill="#FAFCFB" transform="translate(106,124)"/>
<path d="M0 0 C2.51083114 1.25541557 2.87125446 2.50063488 4 5 C6.93589362 5.23457761 6.93589362 5.23457761 9 3.9375 C11 3 11 3 14 4 C13.195625 4.45375 12.39125 4.9075 11.5625 5.375 C8.91143428 6.74725665 8.91143428 6.74725665 8 9 C8.66 9.33 9.32 9.66 10 10 C7.525 11.485 7.525 11.485 5 13 C4.15615325 11.58957044 3.32530504 10.17135868 2.5 8.75 C2.0359375 7.96109375 1.571875 7.1721875 1.09375 6.359375 C0 4 0 4 0 0 Z " fill="#CCDEF0" transform="translate(111,207)"/>
<path d="M0 0 C1.30660357 4.29727397 0.6596762 7.60215865 0 12 C-0.66 12 -1.32 12 -2 12 C-2 13.98 -2 15.96 -2 18 C-5.61973402 19.31626692 -8.09567131 20 -12 20 C-11.505 18.515 -11.505 18.515 -11 17 C-10.01 17 -9.02 17 -8 17 C-4.14351092 14.42900728 -3.60288258 11.60090548 -2.3125 7.375 C-1.97508789 6.31539062 -1.97508789 6.31539062 -1.63085938 5.234375 C-1.07772099 3.49257755 -0.53759637 1.74665697 0 0 Z " fill="#CADEF0" transform="translate(175,204)"/>
<path d="M0 0 C4.62 0 9.24 0 14 0 C14.33 1.32 14.66 2.64 15 4 C10.38565925 6.53044493 5.99065483 6.21579803 1 5 C0.34 4.34 -0.32 3.68 -1 3 C3.29 3 7.58 3 12 3 C12 2.34 12 1.68 12 1 C8.04 1 4.08 1 0 1 C0 0.67 0 0.34 0 0 Z " fill="#CEE0F6" transform="translate(238,178)"/>
<path d="M0 0 C0.33 0 0.66 0 1 0 C1.07420941 5.33851078 1.12863002 10.67672067 1.16479492 16.015625 C1.17987262 17.83143342 1.20033798 19.64720547 1.22631836 21.46289062 C1.2627468 24.07431008 1.27973638 26.68524765 1.29296875 29.296875 C1.30845261 30.10743347 1.32393646 30.91799194 1.33988953 31.75311279 C1.34091668 35.2004342 1.27130109 37.54543217 -0.51831055 40.54394531 C-1.25174683 41.26469238 -1.25174683 41.26469238 -2 42 C-1.84152588 41.01700928 -1.68305176 40.03401855 -1.51977539 39.02124023 C-0.93310649 34.90008343 -0.77884928 30.81779164 -0.68359375 26.66015625 C-0.66281265 25.89319931 -0.64203156 25.12624237 -0.62062073 24.33604431 C-0.55579168 21.91161128 -0.49655379 19.48707987 -0.4375 17.0625 C-0.39425121 15.40819338 -0.35063501 13.75389633 -0.30664062 12.09960938 C-0.20017976 8.06650434 -0.09872938 4.03330141 0 0 Z " fill="#D0EFFE" transform="translate(232,295)"/>
<path d="M0 0 C0.33 0.66 0.66 1.32 1 2 C0.01 3.485 0.01 3.485 -1 5 C-1.99 5 -2.98 5 -4 5 C-4.20625 5.556875 -4.4125 6.11375 -4.625 6.6875 C-6.55000774 9.92501302 -9.03850902 11.68231141 -12 14 C-12.66 13.67 -13.32 13.34 -14 13 C-12.04468135 11.0177733 -10.08594334 9.03914884 -8.125 7.0625 C-7.56941406 6.49853516 -7.01382813 5.93457031 -6.44140625 5.35351562 C-2.2265625 1.11328125 -2.2265625 1.11328125 0 0 Z " fill="#D3E5F6" transform="translate(122,106)"/>
<path d="M0 0 C1.75794184 2.63691276 2.47727992 4.19994341 3.2890625 7.16015625 C3.50820313 7.95357422 3.72734375 8.74699219 3.953125 9.56445312 C4.17484375 10.38880859 4.3965625 11.21316406 4.625 12.0625 C4.85445313 12.89072266 5.08390625 13.71894531 5.3203125 14.57226562 C7 20.71612258 7 20.71612258 7 23 C6.34 23 5.68 23 5 23 C2.50849024 17.8053728 1.38213379 13.27451591 0.8125 7.5625 C0.73064453 6.83095703 0.64878906 6.09941406 0.56445312 5.34570312 C0.36658115 3.56485534 0.18189293 1.78255073 0 0 Z " fill="#ADCEE3" transform="translate(259,84)"/>
<path d="M0 0 C2.475 0.99 2.475 0.99 5 2 C4.67 2.66 4.34 3.32 4 4 C3.34 4 2.68 4 2 4 C1.67 9.94 1.34 15.88 1 22 C0.34 21.67 -0.32 21.34 -1 21 C-0.67 14.07 -0.34 7.14 0 0 Z " fill="#CAE6F6" transform="translate(127,267)"/>
<path d="M0 0 C1.95273962 2.92910944 2.75396363 5.08132291 3.6875 8.4375 C3.95949219 9.38496094 4.23148438 10.33242187 4.51171875 11.30859375 C4.99803744 13.98918237 4.89369149 15.46287583 4 18 C4 17.34 4 16.68 4 16 C3.34 16 2.68 16 2 16 C1.855625 14.865625 1.71125 13.73125 1.5625 12.5625 C1.38828522 9.19222799 1.38828522 9.19222799 0 8 C-0.14115161 5.32941149 -0.04247107 2.67567762 0 0 Z " fill="#AEC9DA" transform="translate(249,152)"/>
<path d="M0 0 C3 1 3 1 4 3 C5.98 3 7.96 3 10 3 C7.22719294 6.08089673 4.93673644 7.68775452 1 9 C0.29925156 5.846632 0 3.27275026 0 0 Z " fill="#C9DDED" transform="translate(214,237)"/>
<path d="M0 0 C0.66 1.32 1.32 2.64 2 4 C1.01 4.66 0.02 5.32 -1 6 C-2.00168531 7.94832935 -2.00168531 7.94832935 -2.6875 10.125 C-2.93886719 10.84945312 -3.19023438 11.57390625 -3.44921875 12.3203125 C-3.63097656 12.87460938 -3.81273438 13.42890625 -4 14 C-4.99 14 -5.98 14 -7 14 C-5.53967505 8.68972746 -3.01679014 4.53669968 0 0 Z " fill="#C1D9EA" transform="translate(85,125)"/>
<path d="M0 0 C2.18077354 0.23241804 4.36031947 0.47179152 6.5390625 0.72265625 C8.66944491 0.96274697 10.80328847 1.17174176 12.9375 1.375 C16 2 16 2 18 5 C11.69632197 4.41632611 6.01339937 2.95928381 0 1 C0 0.67 0 0.34 0 0 Z " fill="#B7D2EB" transform="translate(149,268)"/>
<path d="M0 0 C2 3 2 3 1.75390625 4.859375 C0.87619552 7.35152776 -0.06451134 9.80331812 -1.0625 12.25 C-1.42472656 13.14203125 -1.78695313 14.0340625 -2.16015625 14.953125 C-2.57587891 15.96632812 -2.57587891 15.96632812 -3 17 C-3.66 17 -4.32 17 -5 17 C-4.80664062 16.35933594 -4.61328125 15.71867188 -4.4140625 15.05859375 C-2.9059252 10.04889015 -1.42282214 5.03460143 0 0 Z " fill="#BFD6E8" transform="translate(273,202)"/>
<path d="M0 0 C-1.65 0.66 -3.3 1.32 -5 2 C-5 2.99 -5 3.98 -5 5 C-7.97 4.67 -10.94 4.34 -14 4 C-4.81927711 -2.12048193 -4.81927711 -2.12048193 0 0 Z " fill="#C0D4E9" transform="translate(161,109)"/>
<path d="M0 0 C5.81261371 1.73982995 10.83169994 3.8110489 16 7 C12.65044556 8.11651815 11.32740404 7.99822121 8 7 C6.97895449 6.02149805 5.9793879 5.02019573 5 4 C2.40084462 2.80972016 2.40084462 2.80972016 0 2 C0 1.34 0 0.68 0 0 Z " fill="#B9D0EC" transform="translate(212,92)"/>
<path d="M0 0 C0.66 0.33 1.32 0.66 2 1 C-1.25697128 4.79979982 -5.22568435 7.48005185 -10 9 C-12.25 8.60546875 -12.25 8.60546875 -14 8 C-13.07316406 7.50628906 -12.14632812 7.01257813 -11.19140625 6.50390625 C-9.98172045 5.85686501 -8.77208778 5.20972446 -7.5625 4.5625 C-6.95083984 4.23701172 -6.33917969 3.91152344 -5.70898438 3.57617188 C-2.66283794 2.06284858 -2.66283794 2.06284858 0 0 Z " fill="#B8D3E5" transform="translate(228,248)"/>
<path d="M0 0 C1.3357457 3.77371512 0.72408671 6.85831347 0.0625 10.75 C-0.13214844 11.92046875 -0.32679687 13.0909375 -0.52734375 14.296875 C-0.68332031 15.18890625 -0.83929688 16.0809375 -1 17 C-1.99 17 -2.98 17 -4 17 C-2.91103333 11.24237834 -1.70663707 5.60752181 0 0 Z " fill="#B8D2E7" transform="translate(104,70)"/>
<path d="M0 0 C5.445 1.485 5.445 1.485 11 3 C11 3.33 11 3.66 11 4 C7.7 3.67 4.4 3.34 1 3 C1 6.3 1 9.6 1 13 C0.67 13 0.34 13 0 13 C0 8.71 0 4.42 0 0 Z " fill="#C9E0EF" transform="translate(238,51)"/>
<path d="M0 0 C0 0.66 0 1.32 0 2 C-0.66 2 -1.32 2 -2 2 C-2.20625 2.556875 -2.4125 3.11375 -2.625 3.6875 C-4.55000774 6.92501302 -7.03850902 8.68231141 -10 11 C-10.66 10.67 -11.32 10.34 -12 10 C-10.38113585 8.32737283 -8.7547271 6.66204463 -7.125 5 C-6.22007812 4.071875 -5.31515625 3.14375 -4.3828125 2.1875 C-2 0 -2 0 0 0 Z " fill="#D7E8F7" transform="translate(135,121)"/>
<path d="M0 0 C0.33 0.99 0.66 1.98 1 3 C-6.11389522 9.51936219 -6.11389522 9.51936219 -11 11 C-7.33333333 7.33333333 -3.66666667 3.66666667 0 0 Z " fill="#C8DEF1" transform="translate(241,237)"/>
<path d="M0 0 C0.66 0.66 1.32 1.32 2 2 C1.875 4 1.875 4 1 6 C-0.9375 7.3125 -0.9375 7.3125 -3 8 C-3.66 7.67 -4.32 7.34 -5 7 C-5 8.32 -5 9.64 -5 11 C-5.66 11 -6.32 11 -7 11 C-7 9.35 -7 7.7 -7 6 C-6.21625 5.938125 -5.4325 5.87625 -4.625 5.8125 C-3.75875 5.544375 -2.8925 5.27625 -2 5 C-0.62533375 2.52363988 -0.62533375 2.52363988 0 0 Z " fill="#B2C9DD" transform="translate(185,179)"/>
<path d="M0 0 C0.66 0 1.32 0 2 0 C1.01 5.28 0.02 10.56 -1 16 C-1.33 16 -1.66 16 -2 16 C-2.33 12.7 -2.66 9.4 -3 6 C-2.34 6 -1.68 6 -1 6 C-0.67 4.02 -0.34 2.04 0 0 Z " fill="#B7D2E9" transform="translate(86,152)"/>
<path d="M0 0 C0.33 0 0.66 0 1 0 C1 7.26 1 14.52 1 22 C-1.475 21.01 -1.475 21.01 -4 20 C-2.68 19.67 -1.36 19.34 0 19 C0 12.73 0 6.46 0 0 Z " fill="#CBEAFA" transform="translate(232,71)"/>
<path d="M0 0 C0.99 0 1.98 0 3 0 C1.41078475 5.36095277 -0.18972938 10.70843973 -2 16 C-2.33 16 -2.66 16 -3 16 C-2.30834212 10.58201328 -1.24200752 5.3177215 0 0 Z " fill="#A8C1DA" transform="translate(169,191)"/>
<path d="M0 0 C0.33 0 0.66 0 1 0 C0.91291962 2.10494301 0.80474307 4.20902142 0.6875 6.3125 C0.62949219 7.48425781 0.57148437 8.65601563 0.51171875 9.86328125 C-0.01604768 13.0983686 -0.42380724 14.08684881 -3 16 C-2.52013969 10.43109483 -1.70084819 5.32932432 0 0 Z " fill="#B7D1ED" transform="translate(109,154)"/>
<path d="M0 0 C-0.79664062 0.45439453 -0.79664062 0.45439453 -1.609375 0.91796875 C-5.93329703 3.48233857 -9.1035653 5.77603273 -12 10 C-12.0625 6.75 -12.0625 6.75 -11 3 C-7.79424595 0.77099913 -3.72946261 -1.8647313 0 0 Z " fill="#B4CEE5" transform="translate(119,53)"/>
<path d="M0 0 C4.62 0 9.24 0 14 0 C10.83759418 2.10827055 9.49342531 2.33817465 5.8125 2.625 C4.46091797 2.73714844 4.46091797 2.73714844 3.08203125 2.8515625 C2.05142578 2.92503906 2.05142578 2.92503906 1 3 C0.67 2.01 0.34 1.02 0 0 Z " fill="#CBDEF6" transform="translate(109,181)"/>
<path d="M0 0 C4.29 2.31 8.58 4.62 13 7 C9.28871422 8.23709526 8.45266987 7.64412851 5 6 C2.1875 4.5625 2.1875 4.5625 0 3 C0 2.01 0 1.02 0 0 Z " fill="#B7CDE3" transform="translate(118,145)"/>
<path d="M0 0 C1.98 0 3.96 0 6 0 C4.68 0.33 3.36 0.66 2 1 C2.66 3.31 3.32 5.62 4 8 C2.35 7.67 0.7 7.34 -1 7 C-0.67 4.69 -0.34 2.38 0 0 Z " fill="#E7F7FB" transform="translate(137,138)"/>
<path d="M0 0 C0.66 0 1.32 0 2 0 C3.905247 5.10334017 5.42589023 9.46342706 5 15 C3.26830404 11.8377726 2.2871024 8.73257278 1.375 5.25 C1.11460937 4.26515625 0.85421875 3.2803125 0.5859375 2.265625 C0.39257812 1.51796875 0.19921875 0.7703125 0 0 Z " fill="#BED6EE" transform="translate(269,143)"/>
<path d="M0 0 C1.14926266 0.95421808 2.29430541 1.91352045 3.4375 2.875 C4.07558594 3.40867188 4.71367188 3.94234375 5.37109375 4.4921875 C7 6 7 6 8 8 C4.51460083 7.35455571 1.97180943 5.89865603 -1 4 C-0.67 2.68 -0.34 1.36 0 0 Z " fill="#C1D4EB" transform="translate(106,242)"/>
<path d="M0 0 C0.33 0 0.66 0 1 0 C1.10251672 5.12583611 1.03590199 9.94997778 0 15 C-0.33 15 -0.66 15 -1 15 C-2.18609365 9.3067505 -1.66251802 5.57432514 0 0 Z " fill="#C1DDF8" transform="translate(128,25)"/>
<path d="M0 0 C1.46067199 0.45082469 2.91848032 0.91093537 4.375 1.375 C5.18710938 1.63023437 5.99921875 1.88546875 6.8359375 2.1484375 C9 3 9 3 11 5 C6.37390802 5.3227506 3.71973879 4.84450614 0 2 C0 1.34 0 0.68 0 0 Z " fill="#B5D0EC" transform="translate(132,270)"/>
<path d="M0 0 C0.66 0.99 1.32 1.98 2 3 C1.01 3.33 0.02 3.66 -1 4 C-1.33 5.98 -1.66 7.96 -2 10 C-3.32 9.34 -4.64 8.68 -6 8 C-5.566875 7.608125 -5.13375 7.21625 -4.6875 6.8125 C-2.73633776 4.71680722 -1.40989838 2.48410667 0 0 Z " fill="#BFD6E7" transform="translate(150,233)"/>
<path d="M0 0 C6.75 1.625 6.75 1.625 9 5 C8.34 5 7.68 5 7 5 C6.67 5.66 6.34 6.32 6 7 C4.02 4.69 2.04 2.38 0 0 Z " fill="#E3F1F8" transform="translate(127,232)"/>
<path d="M0 0 C1.32 0.33 2.64 0.66 4 1 C3.67 5.62 3.34 10.24 3 15 C2.67 15 2.34 15 2 15 C2 10.71 2 6.42 2 2 C1.34 2 0.68 2 0 2 C0 1.34 0 0.68 0 0 Z " fill="#DCF3FC" transform="translate(179,235)"/>
<path d="M0 0 C0.33 0 0.66 0 1 0 C1 4.29 1 8.58 1 13 C1.66 13.33 2.32 13.66 3 14 C1.35 13.67 -0.3 13.34 -2 13 C-1.34 8.71 -0.68 4.42 0 0 Z " fill="#ADC6EC" transform="translate(178,237)"/>
<path d="M0 0 C4.62 0 9.24 0 14 0 C14.33 1.32 14.66 2.64 15 4 C14.01 3.67 13.02 3.34 12 3 C12 2.34 12 1.68 12 1 C8.04 1 4.08 1 0 1 C0 0.67 0 0.34 0 0 Z " fill="#D9F0F5" transform="translate(238,178)"/>
<path d="M0 0 C1.43088528 2.86177057 0.59991697 4.93375773 0 8 C-1.32 8.33 -2.64 8.66 -4 9 C-4.33 8.34 -4.66 7.68 -5 7 C-4.34 7 -3.68 7 -3 7 C-2.690625 6.030625 -2.38125 5.06125 -2.0625 4.0625 C-1 1 -1 1 0 0 Z " fill="#CEE3F1" transform="translate(213,124)"/>
<path d="M0 0 C1.65 0 3.3 0 5 0 C1.80331012 2.6486859 -1.39486597 4.93992341 -5 7 C-5 6.01 -5 5.02 -5 4 C-4.01 4 -3.02 4 -2 4 C-1.34 2.68 -0.68 1.36 0 0 Z " fill="#BFD9EC" transform="translate(133,107)"/>
<path d="M0 0 C0.66 0.33 1.32 0.66 2 1 C1.38461538 7.52307692 1.38461538 7.52307692 -0.5625 9.9375 C-1.036875 10.288125 -1.51125 10.63875 -2 11 C-1.125 3.375 -1.125 3.375 0 0 Z " fill="#BFD4E7" transform="translate(96,98)"/>
<path d="M0 0 C-0.33 0.66 -0.66 1.32 -1 2 C-4.47325181 3.1577506 -7.36067448 3.06866652 -11 3 C-3.71428571 -1.85714286 -3.71428571 -1.85714286 0 0 Z " fill="#AECCE5" transform="translate(219,275)"/>
<path d="M0 0 C-3.1254959 2.64465038 -6.08788267 3.84414715 -10 5 C-10 4.34 -10 3.68 -10 3 C-6.81719857 -0.18280143 -4.38555569 -0.29901516 0 0 Z " fill="#B2D0E6" transform="translate(227,261)"/>
<path d="M0 0 C3.91211733 1.15585285 6.8745041 2.35534962 10 5 C9.01 5.33 8.02 5.66 7 6 C7 5.34 7 4.68 7 4 C5.35 4 3.7 4 2 4 C1.34 2.68 0.68 1.36 0 0 Z " fill="#B0CBE3" transform="translate(138,253)"/>
<path d="M0 0 C6.625 -0.25 6.625 -0.25 10 2 C10 2.66 10 3.32 10 4 C6.7 3.01 3.4 2.02 0 1 C0 0.67 0 0.34 0 0 Z " fill="#B9D4E9" transform="translate(149,248)"/>
<path d="M0 0 C-1.5625 1.125 -1.5625 1.125 -4 2 C-7.75 1.125 -7.75 1.125 -11 0 C-11 -0.33 -11 -0.66 -11 -1 C-3.57142857 -2.42857143 -3.57142857 -2.42857143 0 0 Z " fill="#CADDED" transform="translate(215,82)"/>
<path d="M0 0 C0 3.90838866 -1.50567876 5.11594107 -4 8 C-4.99 7.67 -5.98 7.34 -7 7 C-4.69 4.69 -2.38 2.38 0 0 Z " fill="#A8C0DA" transform="translate(251,244)"/>
<path d="M0 0 C-1.26839526 0.50615298 -2.53983102 1.00469099 -3.8125 1.5 C-4.87404297 1.91765625 -4.87404297 1.91765625 -5.95703125 2.34375 C-8 3 -8 3 -11 3 C-11 2.34 -11 1.68 -11 1 C-4.03571429 -1.27678571 -4.03571429 -1.27678571 0 0 Z " fill="#ACCDE3" transform="translate(211,249)"/>
<path d="M0 0 C1.40907283 2.81814566 0.50872691 4.17277204 -0.4375 7.125 C-0.72496094 8.03507813 -1.01242187 8.94515625 -1.30859375 9.8828125 C-1.53675781 10.58148438 -1.76492188 11.28015625 -2 12 C-2.33 12 -2.66 12 -3 12 C-3.2954439 6.97745369 -2.98514628 4.10457614 0 0 Z " fill="#B3CEE5" transform="translate(286,206)"/>
<path d="M0 0 C1.98 1.65 3.96 3.3 6 5 C3.3333581 6.33332095 1.83319697 5.67102033 -1 5 C-0.67 3.35 -0.34 1.7 0 0 Z " fill="#D9EBF6" transform="translate(163,168)"/>
<path d="M0 0 C1.32 0.99 2.64 1.98 4 3 C0.62902617 4.49821059 -1.20442119 5 -5 5 C-5 4.34 -5 3.68 -5 3 C-4.360625 2.87625 -3.72125 2.7525 -3.0625 2.625 C-2.0415625 2.315625 -2.0415625 2.315625 -1 2 C-0.67 1.34 -0.34 0.68 0 0 Z " fill="#CEE0ED" transform="translate(217,115)"/>
<path d="M0 0 C3.36591866 1.44253657 5.51047079 3.33264727 8 6 C5.03 5.01 2.06 4.02 -1 3 C-0.67 2.01 -0.34 1.02 0 0 Z " fill="#C3D9EA" transform="translate(234,104)"/>
<path d="M0 0 C1.13757948 4.55031791 0.4283779 6.63084406 -1 11 C-1.66 11 -2.32 11 -3 11 C-2.01 7.37 -1.02 3.74 0 0 Z " fill="#A2BFDF" transform="translate(175,204)"/>
<path d="M0 0 C1.10191901 4.40767604 0.58706842 5.8922935 -1 10 C-1.66 10 -2.32 10 -3 10 C-2.01 6.7 -1.02 3.4 0 0 Z " fill="#BFD9ED" transform="translate(77,140)"/>
<path d="M0 0 C1.99097846 2.98646769 2.94124926 5.59687262 4 9 C3.01 9.33 2.02 9.66 1 10 C0.67 6.7 0.34 3.4 0 0 Z " fill="#B9D6E7" transform="translate(280,135)"/>
<path d="M0 0 C3.16115776 1.36983503 3.9927092 1.9890638 6 5 C5.67 5.99 5.34 6.98 5 8 C2.5 5.6875 2.5 5.6875 0 3 C0 2.01 0 1.02 0 0 Z " fill="#D7E9F9" transform="translate(144,137)"/>
<path d="M0 0 C0 0.99 0 1.98 0 3 C-3.3 2.67 -6.6 2.34 -10 2 C-6.00889681 0.0044484 -4.30013434 -0.19546065 0 0 Z " fill="#A9C9E1" transform="translate(171,106)"/>
<path d="M0 0 C0.33 0 0.66 0 1 0 C1.36923077 6.4 1.36923077 6.4 -0.5 9.4375 C-0.995 9.953125 -1.49 10.46875 -2 11 C-1 3.57142857 -1 3.57142857 0 0 Z " fill="#C2DFF3" transform="translate(232,326)"/>
<path d="M0 0 C0.5534764 2.07553648 1 3.84365964 1 6 C-0.65 6.33 -2.3 6.66 -4 7 C-2.79618552 4.50638429 -1.54571278 2.31856917 0 0 Z " fill="#C4DBEB" transform="translate(259,234)"/>
<path d="M0 0 C0.66 0.33 1.32 0.66 2 1 C-0.475 4.465 -0.475 4.465 -3 8 C-3.33 7.01 -3.66 6.02 -4 5 C-2.0625 2.3125 -2.0625 2.3125 0 0 Z " fill="#BAD7EB" transform="translate(274,232)"/>
<path d="M0 0 C0.99 0.495 0.99 0.495 2 1 C2.59355614 3.64860427 2.74209269 6.29197322 3 9 C2.67 8.34 2.34 7.68 2 7 C1.34 7 0.68 7 0 7 C0 4.69 0 2.38 0 0 Z " fill="#BCD9EC" transform="translate(251,161)"/>
<path d="M0 0 C2.29633824 3.44450737 2.54016485 5.93812283 3 10 C2.67 9.34 2.34 8.68 2 8 C1.34 8 0.68 8 0 8 C0 5.36 0 2.72 0 0 Z " fill="#ABCBE0" transform="translate(269,152)"/>
<path d="M0 0 C1.0625 1.875 1.0625 1.875 2 4 C1.67 4.66 1.34 5.32 1 6 C-1.5625 6.625 -1.5625 6.625 -4 7 C-2.68 4.69 -1.36 2.38 0 0 Z " fill="#C2D0EC" transform="translate(104,124)"/>
<path d="M0 0 C0.33 0.66 0.66 1.32 1 2 C-1 5 -1 5 -3.625 5.6875 C-4.800625 5.8421875 -4.800625 5.8421875 -6 6 C-2.25 1.125 -2.25 1.125 0 0 Z " fill="#C5DDEF" transform="translate(122,106)"/>
</svg>
